<svg width="12" height="14" viewBox="0 0 12 14" fill="none" xmlns="http://www.w3.org/2000/svg">
<path d="M7.3335 1V3.66667C7.3335 3.84348 7.40373 4.01305 7.52876 4.13807C7.65378 4.2631 7.82335 4.33333 8.00016 4.33333H10.6668" stroke="#0A0A0A" stroke-width="1.5" stroke-linecap="round" stroke-linejoin="round"/>
<path d="M9.3335 13H2.66683C2.31321 13 1.97407 12.8595 1.72402 12.6095C1.47397 12.3594 1.3335 12.0203 1.3335 11.6667V2.33333C1.3335 1.97971 1.47397 1.64057 1.72402 1.39052C1.97407 1.14048 2.31321 1 2.66683 1H7.3335L10.6668 4.33333V11.6667C10.6668 12.0203 10.5264 12.3594 10.2763 12.6095C10.0263 12.8595 9.68712 13 9.3335 13Z" stroke="#0A0A0A" stroke-width="1.5" stroke-linecap="round" stroke-linejoin="round"/>
<path d="M6 6.33325V10.3333" stroke="#0A0A0A" stroke-width="1.5" stroke-linecap="round" stroke-linejoin="round"/>
<path d="M4 8.33325L6 10.3333L8 8.33325" stroke="#0A0A0A" stroke-width="1.5" stroke-linecap="round" stroke-linejoin="round"/>
</svg>
