<svg width="16" height="20" viewBox="0 0 16 20" fill="none" xmlns="http://www.w3.org/2000/svg">
<path d="M4.32949 11.5204L7.00174 14.5204C7.06237 14.5892 7.09572 14.6778 7.09549 14.7694V14.6509L8.11774 15.8112L9.15799 14.6494V14.7597C9.16009 14.6714 9.19329 14.5866 9.25174 14.5204L12.1445 11.2392C12.1597 11.2062 12.1797 11.1756 12.2037 11.1484C13.0626 10.1646 13.5375 8.90386 13.541 7.59792C13.5412 6.8838 13.4007 6.17664 13.1275 5.51684C12.8543 4.85705 12.4538 4.25754 11.9488 3.75259C11.4439 3.24763 10.8444 2.84711 10.1846 2.57392C9.52477 2.30073 8.81761 2.16022 8.10349 2.16042V2.16267C7.38937 2.16247 6.68221 2.30298 6.02242 2.57617C5.36262 2.84936 4.76312 3.24988 4.25816 3.75484C3.7532 4.25979 3.35268 4.8593 3.07949 5.51909C2.8063 6.17889 2.66579 6.88605 2.66599 7.60017C2.66662 8.31345 2.80836 9.01955 3.08305 9.67782C3.35773 10.3361 3.75993 10.9335 4.26649 11.4357C4.30849 11.4769 4.31599 11.4964 4.32949 11.5204ZM4.32949 11.5204C4.32924 11.5204 4.32974 11.5204 4.32949 11.5204ZM8.10349 1.41042C4.69249 1.41042 1.91599 4.18692 1.91599 7.59792C1.91599 9.30042 2.61724 10.8402 3.73099 11.9569C3.74599 11.9832 3.74974 12.0019 3.79099 12.0409L3.76849 12.0184L6.34549 14.9119V14.7934C6.34562 14.8846 6.37895 14.9726 6.43924 15.0409L7.82224 16.6107C7.85738 16.6507 7.90064 16.6827 7.94913 16.7047C7.99763 16.7267 8.05025 16.7381 8.10349 16.7382H8.12674C8.17962 16.7381 8.23188 16.7268 8.28009 16.7051C8.3283 16.6834 8.37138 16.6517 8.40649 16.6122L9.81274 15.0424C9.87174 14.9764 9.90548 14.8917 9.90799 14.8032V14.9119L12.791 11.6419C12.8365 11.5901 12.8669 11.5268 12.8787 11.4589C13.7352 10.3999 14.291 9.06867 14.291 7.59792C14.291 4.23942 11.5895 1.52292 8.25124 1.43967C8.20453 1.41977 8.15426 1.41031 8.10349 1.41042ZM8.10349 4.94967C7.40174 4.95145 6.72922 5.23091 6.23286 5.72698C5.7365 6.22305 5.45667 6.89542 5.45449 7.59717C5.45627 8.29918 5.73593 8.97193 6.23233 9.46833C6.72873 9.96473 7.40148 10.2444 8.10349 10.2462C8.80524 10.2442 9.47768 9.96454 9.9739 9.46833C10.4701 8.97211 10.7498 8.29967 10.7517 7.59792C10.7498 6.89617 10.4701 6.22372 9.9739 5.72751C9.47768 5.23129 8.80524 4.95165 8.10349 4.94967ZM8.10349 5.69967C9.15349 5.69967 10.0017 6.54717 10.0017 7.59717C10.0017 8.64792 9.15349 9.49617 8.10349 9.49617C7.85409 9.49647 7.60708 9.44757 7.3766 9.35229C7.14612 9.25701 6.93669 9.11721 6.7603 8.94089C6.58391 8.76457 6.44403 8.5552 6.34866 8.32476C6.25328 8.09431 6.20429 7.84732 6.20449 7.59792C6.20449 6.54792 7.05349 5.69967 8.10349 5.69967ZM11.1785 14.8369C11.079 14.8419 10.9856 14.8862 10.9188 14.96C10.852 15.0339 10.8173 15.1312 10.8222 15.2307C10.8272 15.3301 10.8715 15.4235 10.9453 15.4903C11.0192 15.5572 11.1165 15.5919 11.216 15.5869H12.9882L14.3345 17.8414H1.66699L3.00424 15.6019H5.59924C5.6987 15.6019 5.79408 15.5624 5.8644 15.4921C5.93473 15.4218 5.97424 15.3264 5.97424 15.2269C5.97424 15.1275 5.93473 15.0321 5.8644 14.9618C5.79408 14.8914 5.6987 14.8519 5.59924 14.8519H2.79124C2.72623 14.8519 2.66233 14.8687 2.60579 14.9008C2.54925 14.9329 2.50202 14.9791 2.46874 15.0349L0.68374 18.0244C0.649826 18.0813 0.631588 18.1462 0.630881 18.2124C0.630173 18.2786 0.647022 18.3439 0.679712 18.4015C0.712403 18.4591 0.759768 18.507 0.816991 18.5404C0.874214 18.5737 0.939253 18.5914 1.00549 18.5914H14.9975C15.0638 18.5915 15.1289 18.574 15.1863 18.5407C15.2436 18.5074 15.2911 18.4595 15.3238 18.4018C15.3566 18.3442 15.3735 18.2789 15.3729 18.2126C15.3722 18.1463 15.3539 18.0814 15.32 18.0244L13.5237 15.0199C13.4907 14.9644 13.4438 14.9184 13.3877 14.8863C13.3316 14.8543 13.2681 14.8372 13.2035 14.8369H11.2167C11.2042 14.8363 11.1917 14.8363 11.1792 14.8369H11.1785Z" stroke="black"/>
</svg>
