<svg width="20" height="20" viewBox="0 0 20 20" fill="none" xmlns="http://www.w3.org/2000/svg">
<path fill-rule="evenodd" clip-rule="evenodd" d="M7.35995 9.28003L9.12287 11.0203L12.5528 6.86351C12.9043 6.43752 13.5346 6.37714 13.9606 6.72864C14.3865 7.08014 14.4469 7.71042 14.0954 8.13641L9.96971 13.1364C9.59587 13.5895 8.91391 13.6243 8.49588 13.2116L5.95493 10.7034C5.56188 10.3154 5.55778 9.68223 5.94577 9.28919C6.33376 8.89614 6.96691 8.89204 7.35995 9.28003ZM6.6665 0.666626H13.3332C16.6469 0.666626 19.3332 3.35292 19.3332 6.66663V13.3333C19.3332 16.647 16.6469 19.3333 13.3332 19.3333H6.6665C3.3528 19.3333 0.666504 16.647 0.666504 13.3333V6.66663C0.666504 3.35292 3.3528 0.666626 6.6665 0.666626ZM6.6665 2.66663C4.45736 2.66663 2.6665 4.45749 2.6665 6.66663V13.3333C2.6665 15.5424 4.45736 17.3333 6.6665 17.3333H13.3332C15.5423 17.3333 17.3332 15.5424 17.3332 13.3333V6.66663C17.3332 4.45749 15.5423 2.66663 13.3332 2.66663H6.6665Z" fill="#1E1E1E"/>
</svg>
