<svg width="16" height="18" viewBox="0 0 16 18" fill="none" xmlns="http://www.w3.org/2000/svg">
<path d="M6.3335 3.16667C6.3335 2.72464 6.50909 2.30072 6.82165 1.98816C7.13421 1.67559 7.55814 1.5 8.00016 1.5C8.44219 1.5 8.86611 1.67559 9.17867 1.98816C9.49123 2.30072 9.66683 2.72464 9.66683 3.16667C10.6238 3.61919 11.4397 4.32361 12.0269 5.20442C12.6141 6.08523 12.9505 7.10923 13.0002 8.16667V10.6667C13.0629 11.1848 13.2464 11.6809 13.5358 12.1151C13.8253 12.5493 14.2127 12.9095 14.6668 13.1667H1.3335C1.78761 12.9095 2.175 12.5493 2.46449 12.1151C2.75397 11.6809 2.93745 11.1848 3.00016 10.6667V8.16667C3.0498 7.10923 3.38625 6.08523 3.97345 5.20442C4.56066 4.32361 5.37649 3.61919 6.3335 3.16667" stroke="white" stroke-width="1.5" stroke-linecap="round" stroke-linejoin="round"/>
<path d="M5.5 13.1665V13.9998C5.5 14.6629 5.76339 15.2988 6.23223 15.7676C6.70107 16.2364 7.33696 16.4998 8 16.4998C8.66304 16.4998 9.29893 16.2364 9.76777 15.7676C10.2366 15.2988 10.5 14.6629 10.5 13.9998V13.1665" stroke="white" stroke-width="1.5" stroke-linecap="round" stroke-linejoin="round"/>
</svg>
