<svg width="24" height="24" viewBox="0 0 24 24" fill="none" xmlns="http://www.w3.org/2000/svg">
<path d="M8.32949 13.5204L11.0017 16.5204C11.0624 16.5892 11.0957 16.6778 11.0955 16.7694V16.6509L12.1177 17.8112L13.158 16.6494V16.7597C13.1601 16.6714 13.1933 16.5866 13.2517 16.5204L16.1445 13.2392C16.1597 13.2062 16.1797 13.1756 16.2037 13.1484C17.0626 12.1646 17.5375 10.9039 17.541 9.59792C17.5412 8.8838 17.4007 8.17664 17.1275 7.51684C16.8543 6.85705 16.4538 6.25754 15.9488 5.75259C15.4439 5.24763 14.8444 4.84711 14.1846 4.57392C13.5248 4.30073 12.8176 4.16022 12.1035 4.16042V4.16267C11.3894 4.16247 10.6822 4.30298 10.0224 4.57617C9.36262 4.84936 8.76312 5.24988 8.25816 5.75484C7.7532 6.25979 7.35268 6.8593 7.07949 7.51909C6.8063 8.17889 6.66579 8.88605 6.66599 9.60017C6.66662 10.3134 6.80836 11.0196 7.08305 11.6778C7.35773 12.3361 7.75993 12.9335 8.26649 13.4357C8.30849 13.4769 8.31599 13.4964 8.32949 13.5204ZM8.32949 13.5204C8.32924 13.5204 8.32974 13.5204 8.32949 13.5204ZM12.1035 3.41042C8.69249 3.41042 5.91599 6.18692 5.91599 9.59792C5.91599 11.3004 6.61724 12.8402 7.73099 13.9569C7.74599 13.9832 7.74974 14.0019 7.79099 14.0409L7.76849 14.0184L10.3455 16.9119V16.7934C10.3456 16.8846 10.3789 16.9726 10.4392 17.0409L11.8222 18.6107C11.8574 18.6507 11.9006 18.6827 11.9491 18.7047C11.9976 18.7267 12.0502 18.7381 12.1035 18.7382H12.1267C12.1796 18.7381 12.2319 18.7268 12.2801 18.7051C12.3283 18.6834 12.3714 18.6517 12.4065 18.6122L13.8127 17.0424C13.8717 16.9764 13.9055 16.8917 13.908 16.8032V16.9119L16.791 13.6419C16.8365 13.5901 16.8669 13.5268 16.8787 13.4589C17.7352 12.3999 18.291 11.0687 18.291 9.59792C18.291 6.23942 15.5895 3.52292 12.2512 3.43967C12.2045 3.41977 12.1543 3.41031 12.1035 3.41042ZM12.1035 6.94967C11.4017 6.95145 10.7292 7.23091 10.2329 7.72698C9.7365 8.22305 9.45667 8.89542 9.45449 9.59717C9.45627 10.2992 9.73593 10.9719 10.2323 11.4683C10.7287 11.9647 11.4015 12.2444 12.1035 12.2462C12.8052 12.2442 13.4777 11.9645 13.9739 11.4683C14.4701 10.9721 14.7498 10.2997 14.7517 9.59792C14.7498 8.89617 14.4701 8.22372 13.9739 7.72751C13.4777 7.23129 12.8052 6.95165 12.1035 6.94967ZM12.1035 7.69967C13.1535 7.69967 14.0017 8.54717 14.0017 9.59717C14.0017 10.6479 13.1535 11.4962 12.1035 11.4962C11.8541 11.4965 11.6071 11.4476 11.3766 11.3523C11.1461 11.257 10.9367 11.1172 10.7603 10.9409C10.5839 10.7646 10.444 10.5552 10.3487 10.3248C10.2533 10.0943 10.2043 9.84732 10.2045 9.59792C10.2045 8.54792 11.0535 7.69967 12.1035 7.69967ZM15.1785 16.8369C15.079 16.8419 14.9856 16.8862 14.9188 16.96C14.852 17.0339 14.8173 17.1312 14.8222 17.2307C14.8272 17.3301 14.8715 17.4235 14.9453 17.4903C15.0192 17.5572 15.1165 17.5919 15.216 17.5869H16.9882L18.3345 19.8414H5.66699L7.00424 17.6019H9.59924C9.6987 17.6019 9.79408 17.5624 9.8644 17.4921C9.93473 17.4218 9.97424 17.3264 9.97424 17.2269C9.97424 17.1275 9.93473 17.0321 9.8644 16.9618C9.79408 16.8914 9.6987 16.8519 9.59924 16.8519H6.79124C6.72623 16.8519 6.66233 16.8687 6.60579 16.9008C6.54925 16.9329 6.50202 16.9791 6.46874 17.0349L4.68374 20.0244C4.64983 20.0813 4.63159 20.1462 4.63088 20.2124C4.63017 20.2786 4.64702 20.3439 4.67971 20.4015C4.7124 20.4591 4.75977 20.507 4.81699 20.5404C4.87421 20.5737 4.93925 20.5914 5.00549 20.5914H18.9975C19.0638 20.5915 19.1289 20.574 19.1863 20.5407C19.2436 20.5074 19.2911 20.4595 19.3238 20.4018C19.3566 20.3442 19.3735 20.2789 19.3729 20.2126C19.3722 20.1463 19.3539 20.0814 19.32 20.0244L17.5237 17.0199C17.4907 16.9644 17.4438 16.9184 17.3877 16.8863C17.3316 16.8543 17.2681 16.8372 17.2035 16.8369H15.2167C15.2042 16.8363 15.1917 16.8363 15.1792 16.8369H15.1785Z" stroke="white"/>
</svg>
