<svg width="24" height="24" viewBox="0 0 24 24" fill="none" xmlns="http://www.w3.org/2000/svg">
<path d="M3.53798 11.8827L3.5376 11.8095C3.55525 7.22512 7.36216 3.3804 11.9622 3.40241L17.6879 3.40179C18.0144 3.40169 18.39 3.38445 18.7067 3.44972C19.8371 3.68269 20.4859 4.65833 20.4885 5.7675L20.4884 16.8365C20.489 17.9251 20.5898 18.9804 19.5736 19.7188C18.9251 20.1899 18.4322 20.1586 17.6727 20.1585L10.5826 20.1582V18.6187L18.2806 18.6182C18.8921 18.612 18.9415 18.2172 18.9413 17.6958L18.9409 14.7579L18.9412 6.45623C18.9411 5.96526 19.0921 5.00962 18.3853 4.9507C18.1627 4.93218 17.9266 4.93983 17.7024 4.94039L12.1818 4.94006C8.33285 4.95637 5.10401 7.96321 5.12763 11.8827H3.53798Z" fill="#1E1E1E"/>
<path d="M6.99495 10.8834C6.96589 8.72163 8.92596 6.68974 10.9933 6.27513C11.2738 6.21888 11.574 6.19877 11.8597 6.17796C14.6583 6.10563 16.7274 8.20919 17.0646 10.8834H15.5458C15.4804 10.1711 15.1596 9.50993 14.7042 8.96613C14.3216 9.37258 13.5779 10.2278 13.2752 10.6867C13.2202 10.7701 13.2772 11.7964 13.243 11.995C13.1715 12.4098 12.6662 12.3648 12.3789 12.3646L11.674 12.3637C11.3055 12.3632 10.7336 12.4883 10.7374 11.9831C10.7419 11.392 10.7214 10.7898 10.7499 10.1995C10.7674 9.83604 11.1619 9.83932 11.4172 9.84133C12.5678 9.83571 12.1928 9.87447 13.1371 9.17749C13.4629 8.93697 13.8554 8.66979 14.1566 8.41005C11.9253 6.70371 8.78623 8.07077 8.51688 10.8834H6.99495Z" fill="#1E1E1E"/>
<path d="M7.14225 17.7803C6.68057 17.7932 6.18136 17.7757 5.7135 17.7808C4.11628 17.7982 3.501 17.6542 3.53767 15.8673C3.55964 14.7965 3.55745 13.9271 4.89754 13.7922L7.34803 13.7915C8.55145 13.7915 8.83668 14.6434 8.83598 15.6412H7.14225C7.13906 15.5672 7.14136 15.4891 7.14225 15.4146H5.17748V16.1076L6.88659 16.1074C7.16461 16.1072 7.57514 16.0751 7.83201 16.1323C8.99901 16.3924 8.82642 17.5131 8.83654 18.3929C8.86106 19.2421 8.49417 20.0873 7.54978 20.1582C7.36157 20.1821 7.04568 20.1554 6.8339 20.1581C5.6197 20.1682 3.7689 20.484 3.55551 18.8384C3.5346 18.6771 3.54201 18.4768 3.53781 18.3114C4.04897 18.3266 4.65919 18.3117 5.17748 18.3114C5.16764 18.4033 5.1705 18.4581 5.17748 18.5493C5.82332 18.5589 6.49429 18.5493 7.14225 18.5493V17.7803Z" fill="#1E1E1E"/>
<path d="M13.9606 16.4896C14.0881 16.3076 14.3085 16.1074 14.4706 15.9449L16.0019 14.4149C16.1559 14.2588 16.2769 14.0879 16.4985 14.0421C16.859 14.0413 17.1101 14.3893 16.8826 14.7032C16.8026 14.8136 16.6842 14.9159 16.586 15.0126L16.1709 15.4264C15.5888 16.011 15.0204 16.6216 14.4313 17.2023C13.8741 17.9772 13.2549 16.9279 12.7891 16.4896C11.7765 15.5574 12.7456 15.2386 13.0355 15.5774C13.0924 15.6439 13.2137 15.7545 13.2793 15.8195L13.9606 16.4896Z" fill="#1E1E1E"/>
</svg>
