<svg width="20" height="20" viewBox="0 0 20 20" fill="none" xmlns="http://www.w3.org/2000/svg">
<path d="M6.66699 1.66663V4.16663" stroke="black" stroke-width="1.5" stroke-miterlimit="10" stroke-linecap="round" stroke-linejoin="round"/>
<path d="M13.333 1.66663V4.16663" stroke="black" stroke-width="1.5" stroke-miterlimit="10" stroke-linecap="round" stroke-linejoin="round"/>
<path d="M13.3333 2.91663C16.1083 3.06663 17.5 4.12496 17.5 8.04163V13.1916C17.5 16.625 16.6667 18.3416 12.5 18.3416H7.5C3.33333 18.3416 2.5 16.625 2.5 13.1916V8.04163C2.5 4.12496 3.89167 3.07496 6.66667 2.91663H13.3333Z" fill="black" stroke="black" stroke-width="1.5" stroke-miterlimit="10" stroke-linecap="round" stroke-linejoin="round"/>
<path d="M17.2913 14.6666H2.70801" stroke="#FAFAFA" stroke-width="1.5" stroke-miterlimit="10" stroke-linecap="round" stroke-linejoin="round"/>
<path d="M11.332 10.3535C11.498 10.5409 11.584 10.7716 11.584 11.0254C11.5839 11.4006 11.4444 11.672 11.21 11.8604C10.963 12.0587 10.564 12.2002 10 12.2002C9.4312 12.2001 9.0333 12.0579 8.78809 11.8604C8.55547 11.6729 8.41709 11.4022 8.41699 11.0254C8.41699 10.7753 8.50058 10.548 8.66406 10.3594C8.58991 10.519 8.55079 10.6984 8.55078 10.8916C8.55078 11.2901 8.7169 11.6319 9.01172 11.8613C9.29199 12.0793 9.64846 12.1669 10 12.167C10.3516 12.167 10.7079 12.0793 10.9883 11.8613C11.2833 11.6319 11.4502 11.2902 11.4502 10.8916C11.4502 10.6959 11.4088 10.5146 11.332 10.3535ZM10 7.375C10.4278 7.375 10.78 7.49218 11.0137 7.67969C11.2341 7.85665 11.3838 8.12166 11.3838 8.5166C11.3838 8.82032 11.2691 9.03825 11.0674 9.2041C11.1852 9.02239 11.25 8.80775 11.25 8.5752C11.25 8.22937 11.1136 7.92069 10.8604 7.70703C10.6168 7.5016 10.3054 7.41699 10 7.41699C9.69476 7.41705 9.38407 7.50178 9.14062 7.70703C8.88739 7.92069 8.75 8.22937 8.75 8.5752C8.75004 8.81393 8.81846 9.03408 8.94238 9.21875C8.73616 9.05674 8.6084 8.82856 8.6084 8.5166C8.60842 8.12349 8.75878 7.85841 8.98145 7.68066C9.21755 7.49235 9.57228 7.37506 10 7.375Z" fill="black" stroke="#FAFAFA"/>
</svg>
