<svg width="19" height="19" viewBox="0 0 19 19" fill="none" xmlns="http://www.w3.org/2000/svg">
<path d="M9.5 18C14.1944 18 18 14.1944 18 9.5C18 4.80558 14.1944 1 9.5 1C4.80558 1 1 4.80558 1 9.5C1 14.1944 4.80558 18 9.5 18Z" fill="#1E1E1E"/>
<path d="M7.0265 6.95C7.22634 6.38192 7.62078 5.90289 8.13996 5.59776C8.65914 5.29264 9.26956 5.1811 9.8631 5.28291C10.4566 5.38471 10.995 5.6933 11.3828 6.154C11.7706 6.6147 11.9829 7.19779 11.982 7.8C11.982 9.5 9.432 10.35 9.432 10.35" fill="#1E1E1E"/>
<path d="M7.0265 6.95C7.22634 6.38192 7.62078 5.90289 8.13996 5.59776C8.65914 5.29264 9.26956 5.1811 9.8631 5.28291C10.4566 5.38471 10.995 5.6933 11.3828 6.154C11.7706 6.6147 11.9829 7.19779 11.982 7.8C11.982 9.5 9.432 10.35 9.432 10.35M9.5 13.75H9.5085M18 9.5C18 14.1944 14.1944 18 9.5 18C4.80558 18 1 14.1944 1 9.5C1 4.80558 4.80558 1 9.5 1C14.1944 1 18 4.80558 18 9.5Z" stroke="#FAFAFA" stroke-linecap="round" stroke-linejoin="round"/>
</svg>
