<svg width="20" height="20" viewBox="0 0 20 20" fill="none" xmlns="http://www.w3.org/2000/svg">
<path d="M14.167 7.49996C14.167 10.725 11.367 13.3333 7.91699 13.3333L7.142 14.2666L6.68366 14.8167C6.292 15.2833 5.54199 15.1833 5.28366 14.6249L4.16699 12.1666C2.65033 11.0999 1.66699 9.40829 1.66699 7.49996C1.66699 4.27496 4.46699 1.66663 7.91699 1.66663C10.4337 1.66663 12.6087 3.0583 13.5837 5.0583C13.9587 5.79997 14.167 6.62496 14.167 7.49996Z" fill="black" stroke="#FAFAFA" stroke-width="1.5" stroke-linecap="round" stroke-linejoin="round"/>
<path d="M18.3333 10.7167C18.3333 12.625 17.3499 14.3167 15.8333 15.3834L14.7166 17.8417C14.4583 18.4 13.7083 18.5084 13.3166 18.0334L12.0833 16.55C10.0666 16.55 8.2666 15.6583 7.1416 14.2667L7.9166 13.3333C11.3666 13.3333 14.1666 10.725 14.1666 7.50001C14.1666 6.62501 13.9583 5.80002 13.5833 5.05835C16.3083 5.68335 18.3333 7.98333 18.3333 10.7167Z" fill="black" stroke="#FAFAFA" stroke-width="1.5" stroke-linecap="round" stroke-linejoin="round"/>
<path d="M5.83301 7.5H9.99967" stroke="#FAFAFA" stroke-width="1.5" stroke-linecap="round" stroke-linejoin="round"/>
</svg>
